<svg width="355" height="289" viewBox="0 0 355 289" fill="none" xmlns="http://www.w3.org/2000/svg">
<g clip-path="url(#clip0_550_30840)">
<path d="M314.38 78.1417C322.452 99.978 298.017 98.3366 273.653 120.095C249.288 141.853 235.336 162.323 200.556 175.18C174.076 184.969 146.898 180.84 123.507 185.416C77.5065 194.366 39.5779 209.268 29.9693 183.275C22.1659 162.165 48.19 124.85 72.6493 101.036C93.6468 80.5795 104.121 55.0184 145.569 66.3674C180.481 75.9197 209.621 54.3601 237.736 55.239C274.647 56.3958 306.15 55.8796 314.38 78.1417Z" stroke="#6C9BD2" stroke-width="0.79247" stroke-miterlimit="10"/>
<path d="M315.759 81.8741C323.858 103.786 298.507 103.365 273.781 125.456C249.819 146.838 237.908 167.123 203.253 179.934C176.723 189.741 147.632 184.526 124.19 188.808C78.2643 197.189 40.9474 212.976 31.3482 187.008C23.4058 165.522 47.6124 126.374 73.006 102.158C93.8943 82.2538 108.274 60.8566 148.483 70.2439C182.487 78.1109 210.927 52.3417 238.549 52.8903C276.487 53.6671 307.381 59.2113 315.759 81.8741Z" stroke="#6C9FD5" stroke-width="0.79247" stroke-miterlimit="10"/>
<path d="M317.137 85.605C325.265 107.592 299.006 108.418 273.909 130.816C250.293 151.899 240.445 171.906 205.966 184.652C179.36 194.487 148.367 188.211 124.864 192.174C78.9876 199.995 42.3169 216.682 32.7269 190.739C24.6457 168.877 47.0161 127.846 73.3626 103.278C94.1324 83.9016 112.403 66.7869 151.397 74.1189C184.503 80.3257 212.247 50.2875 239.361 50.5402C278.319 50.9119 308.637 62.5324 317.162 85.5958L317.137 85.605Z" stroke="#6CA3D8" stroke-width="0.79247" stroke-miterlimit="10"/>
<path d="M318.518 89.3361C326.673 111.398 299.507 113.47 274.049 136.202C250.754 156.995 243.019 176.705 208.665 189.404C181.984 199.267 149.104 191.895 125.524 195.573C79.7382 202.792 43.6792 220.363 34.1077 194.47C25.8877 172.233 46.4312 129.344 73.7213 104.398C94.3634 85.5244 116.551 72.6831 154.313 77.9939C186.52 82.5405 213.57 48.2334 240.151 48.1994C280.127 48.166 309.86 65.8377 318.543 89.3268L318.518 89.3361Z" stroke="#6DA7DB" stroke-width="0.79247" stroke-miterlimit="10"/>
<path d="M319.896 93.0665C328.079 115.203 299.98 118.531 274.177 141.561C251.202 162.066 245.555 181.487 211.377 194.122C184.621 204.012 149.853 195.545 126.196 198.938C80.4608 205.598 45.0479 224.068 35.4856 198.2C27.1268 175.587 45.8248 130.791 74.0613 105.552C94.5849 87.2061 120.671 78.5879 157.186 81.912C188.484 84.7733 214.84 46.1972 240.921 45.8923C281.932 45.4195 311.074 69.2018 319.905 93.0916L319.896 93.0665Z" stroke="#6DABDD" stroke-width="0.79247" stroke-miterlimit="10"/>
<path d="M321.284 96.823C329.495 119.035 300.488 123.609 274.314 146.947C251.685 167.153 248.126 186.286 214.098 198.865C187.267 208.783 150.587 199.23 126.879 202.329C81.209 208.395 46.4171 227.774 36.8734 201.956C28.3664 178.943 45.2033 132.273 74.4177 106.672C94.7793 88.8135 124.832 84.4501 160.1 85.7874C190.515 86.9542 216.152 44.1184 241.743 43.5676C283.764 42.6647 312.314 72.5576 321.293 96.848L321.284 96.823Z" stroke="#6DAFE0" stroke-width="0.79247" stroke-miterlimit="10"/>
<path d="M322.669 100.554C330.907 122.841 300.994 128.661 274.458 152.332C252.149 172.249 250.713 191.11 216.81 203.642C189.904 213.588 151.337 202.939 127.577 205.745C81.9385 211.202 47.7928 231.48 38.2583 205.687C29.6125 182.298 44.5789 133.729 74.7805 107.793C95.0143 90.4362 128.991 90.2867 163.02 89.6624C192.543 89.1096 217.485 42.0048 242.536 41.2267C285.583 39.8594 313.551 75.8878 322.678 100.579L322.669 100.554Z" stroke="#6DB3E3" stroke-width="0.79247" stroke-miterlimit="10"/>
<path d="M324.043 104.287C332.31 126.649 301.464 133.725 274.582 157.694C252.594 177.321 253.246 195.895 219.519 208.362C192.563 218.327 152.084 206.591 128.247 209.112C82.683 214 49.149 235.163 39.633 209.42C30.8391 185.631 43.9258 135.138 75.1331 108.914C95.2049 92.0449 133.139 96.1252 165.93 93.5392C194.561 91.2668 218.784 39.9022 243.345 38.8783C287.432 37.0122 314.793 79.1856 324.068 104.277L324.043 104.287Z" stroke="#6EB7E5" stroke-width="0.79247" stroke-miterlimit="10"/>
<path d="M325.42 108.018C333.714 130.455 301.961 138.777 274.708 163.054C253.057 182.358 255.806 200.668 222.23 213.08C195.198 223.073 152.807 210.251 128.918 212.478C83.395 216.782 50.5071 238.844 41.0004 213.126C32.0676 188.961 43.2746 136.544 75.4533 110.019C95.3538 93.6112 137.255 101.946 168.808 97.3985C196.547 93.4066 220.075 37.7731 244.121 36.5126C289.224 34.157 316.012 82.491 325.436 107.983L325.42 108.018Z" stroke="#6EBBE8" stroke-width="0.79247" stroke-miterlimit="10"/>
<path d="M326.804 111.749C335.126 134.262 302.465 143.83 274.851 168.44C253.52 187.455 258.383 205.468 224.932 217.833C197.825 227.853 153.546 213.936 129.581 215.878C84.1329 219.613 51.8568 242.56 42.3686 216.892C33.297 192.351 42.5805 137.97 75.7994 111.174C95.5285 95.2282 141.387 107.793 171.686 101.318C198.524 95.5812 221.357 35.6787 244.898 34.2067C291.024 31.3023 317.207 85.8655 326.779 111.759L326.804 111.749Z" stroke="#6FBFEA" stroke-width="0.79247" stroke-miterlimit="10"/>
<path d="M328.189 115.504C336.539 138.092 302.961 148.882 274.986 173.825C253.976 192.55 260.927 210.275 227.651 222.575C200.469 232.623 154.303 217.61 130.262 219.267C84.8787 222.409 53.2237 246.265 43.7447 220.622C34.5343 195.706 41.9196 139.35 76.1534 112.293C95.7112 96.8091 145.519 113.578 174.598 105.192C200.534 97.7106 222.648 33.5484 245.682 31.8648C292.831 28.4116 318.436 89.1948 328.155 115.489L328.189 115.504Z" stroke="#6FC3ED" stroke-width="0.79247" stroke-miterlimit="10"/>
</g>
<defs>
<clipPath id="clip0_550_30840">
<rect width="305.893" height="194.948" fill="white" transform="translate(0 106.061) rotate(-20.287)"/>
</clipPath>
</defs>
</svg>
