<svg width="382" height="215" viewBox="0 0 382 215" fill="none" xmlns="http://www.w3.org/2000/svg">
<rect width="381.163" height="214.404" fill="#E9E9E9"/>
<path d="M22.5376 24.447H23.5203V26.591H25.0985V24.447H26.0614V30.4324H22.5376V24.447ZM23.5203 27.4248V29.5887H25.0985V27.4248H23.5203ZM28.9896 23.5735H29.9822V32.646H28.9896V23.5735ZM25.8926 26.9682H27.5304V27.812H25.8926V26.9682ZM27.1731 23.7522H28.1458V32.2192H27.1731V23.7522ZM34.8849 24.1591H35.7882V24.8341C35.7882 25.2312 35.7253 25.6117 35.5996 25.9756C35.4805 26.333 35.3084 26.6704 35.0834 26.9881C34.8584 27.2991 34.5904 27.5803 34.2794 27.8318C33.975 28.0833 33.6375 28.2983 33.267 28.477C32.8964 28.6491 32.5093 28.7781 32.1056 28.8641L31.649 28.0005C32.0063 27.9344 32.3471 27.8318 32.6714 27.6928C32.9956 27.5473 33.2934 27.3719 33.5647 27.1668C33.836 26.955 34.0677 26.7267 34.2596 26.4819C34.4581 26.2304 34.6103 25.9657 34.7162 25.6878C34.8287 25.4032 34.8849 25.1187 34.8849 24.8341V24.1591ZM35.0834 24.1591H35.9867V24.8341C35.9867 25.1253 36.0396 25.4098 36.1455 25.6878C36.258 25.9657 36.4135 26.2304 36.6121 26.4819C36.8106 26.7333 37.0455 26.9616 37.3168 27.1668C37.5881 27.3719 37.8859 27.5473 38.2102 27.6928C38.5344 27.8318 38.8752 27.9344 39.2326 28.0005L38.7759 28.8641C38.3723 28.7781 37.9852 28.6491 37.6146 28.477C37.244 28.2983 36.9032 28.0833 36.5922 27.8318C36.2878 27.5803 36.0231 27.2991 35.7981 26.9881C35.5731 26.6704 35.3978 26.333 35.272 25.9756C35.1463 25.6117 35.0834 25.2312 35.0834 24.8341V24.1591ZM31.3711 30.621H39.5899V31.4846H31.3711V30.621ZM41.5148 28.3678H47.8079V29.2016H41.5148V28.3678ZM40.5023 30.6905H48.7211V31.5442H40.5023V30.6905ZM41.5148 24.308H47.7285V25.1418H42.567V28.616H41.5148V24.308ZM42.2493 26.3131H47.53V27.137H42.2493V26.3131ZM55.5357 25.1418H57.1736V25.9855H55.5357V25.1418ZM53.62 23.9408H54.4141V24.7051C54.4141 25.208 54.338 25.6977 54.1858 26.1741C54.0402 26.644 53.8152 27.0708 53.5108 27.4546C53.213 27.8318 52.8358 28.1263 52.3792 28.338L51.8134 27.5638C52.2171 27.3719 52.5513 27.1237 52.816 26.8193C53.0807 26.5149 53.2792 26.1808 53.4116 25.8168C53.5505 25.4462 53.62 25.0756 53.62 24.7051V23.9408ZM53.8284 23.9408H54.6225V24.7349C54.6225 25.0922 54.6821 25.4363 54.8012 25.7672C54.9269 26.098 55.1122 26.3958 55.3571 26.6605C55.6085 26.9252 55.9229 27.137 56.3001 27.2958L55.764 28.08C55.3207 27.8947 54.9534 27.6333 54.6622 27.2958C54.3777 26.9517 54.1659 26.5613 54.027 26.1245C53.8946 25.6811 53.8284 25.2179 53.8284 24.7349V23.9408ZM58.5533 23.5834H59.5459V28.3678H58.5533V23.5834ZM56.7666 23.7323H57.7393V28.2983H56.7666V23.7323ZM53.481 28.7351H59.5459V30.9982H54.5233V32.2192H53.5009V30.2339H58.5235V29.549H53.481V28.7351ZM53.5009 31.7526H59.8635V32.5666H53.5009V31.7526ZM67.4761 23.5735H68.5084V32.6658H67.4761V23.5735ZM65.878 26.9583H67.7044V27.812H65.878V26.9583ZM61.3219 29.6582H62.0366C62.5527 29.6582 63.0292 29.6516 63.4659 29.6384C63.9093 29.6251 64.3394 29.5987 64.7563 29.5589C65.1798 29.5192 65.6133 29.463 66.0567 29.3902L66.146 30.2439C65.696 30.3166 65.2559 30.3729 64.8258 30.4126C64.3957 30.4523 63.9556 30.4821 63.5056 30.5019C63.0557 30.5152 62.566 30.5218 62.0366 30.5218H61.3219V29.6582ZM61.302 24.3874H65.3618V27.673H62.3443V29.9163H61.3219V26.8392H64.3394V25.2212H61.302V24.3874Z" fill="black"/>
<path d="M187.539 155.312H187.783V155.546C187.783 155.835 187.72 156.101 187.594 156.346C187.468 156.591 187.3 156.802 187.089 156.98C186.881 157.158 186.649 157.293 186.394 157.385L186.238 157.152C186.412 157.089 186.577 157.006 186.733 156.902C186.888 156.798 187.026 156.676 187.144 156.535C187.266 156.394 187.363 156.24 187.433 156.074C187.504 155.903 187.539 155.727 187.539 155.546V155.312ZM187.583 155.312H187.828V155.546C187.828 155.716 187.863 155.879 187.933 156.035C188.008 156.187 188.106 156.327 188.228 156.457C188.354 156.587 188.495 156.7 188.65 156.796C188.81 156.889 188.975 156.961 189.145 157.013L189.006 157.252C188.751 157.167 188.513 157.043 188.295 156.88C188.08 156.717 187.907 156.522 187.778 156.296C187.648 156.07 187.583 155.82 187.583 155.546V155.312ZM186.338 155.162H189.023V155.412H186.338V155.162ZM187.539 154.489H187.833V155.273H187.539V154.489ZM189.84 154.501H190.14V157.936H189.84V154.501ZM188.428 157.636H188.684V157.736C188.684 157.977 188.628 158.191 188.517 158.38C188.406 158.566 188.26 158.731 188.078 158.875C187.896 159.016 187.696 159.133 187.478 159.225C187.259 159.322 187.042 159.392 186.827 159.437L186.705 159.192C186.901 159.159 187.1 159.101 187.3 159.02C187.5 158.938 187.685 158.836 187.856 158.714C188.026 158.588 188.163 158.443 188.267 158.28C188.374 158.117 188.428 157.936 188.428 157.736V157.636ZM188.478 157.636H188.734V157.736C188.734 157.936 188.786 158.117 188.89 158.28C188.993 158.443 189.13 158.588 189.301 158.714C189.471 158.836 189.657 158.938 189.857 159.02C190.057 159.101 190.255 159.159 190.451 159.192L190.324 159.437C190.109 159.392 189.892 159.322 189.673 159.225C189.458 159.133 189.26 159.016 189.078 158.875C188.897 158.731 188.751 158.566 188.639 158.38C188.532 158.191 188.478 157.977 188.478 157.736V157.636ZM193.319 156.029H193.608V156.83H193.319V156.029ZM193.314 154.528H193.575V154.767C193.575 154.942 193.534 155.101 193.453 155.245C193.371 155.386 193.264 155.514 193.13 155.629C192.997 155.744 192.843 155.844 192.669 155.929C192.498 156.014 192.321 156.087 192.135 156.146C191.954 156.201 191.776 156.242 191.602 156.268L191.491 156.035C191.646 156.016 191.807 155.983 191.974 155.935C192.145 155.886 192.308 155.825 192.463 155.751C192.623 155.677 192.767 155.59 192.897 155.49C193.027 155.39 193.128 155.281 193.203 155.162C193.277 155.04 193.314 154.908 193.314 154.767V154.528ZM193.358 154.528H193.614V154.767C193.614 154.908 193.651 155.04 193.725 155.162C193.799 155.281 193.899 155.39 194.025 155.49C194.155 155.59 194.299 155.677 194.459 155.751C194.618 155.825 194.781 155.886 194.948 155.935C195.118 155.983 195.28 156.016 195.432 156.035L195.326 156.268C195.152 156.242 194.972 156.201 194.787 156.146C194.605 156.087 194.429 156.014 194.259 155.929C194.088 155.844 193.934 155.744 193.797 155.629C193.66 155.514 193.553 155.386 193.475 155.245C193.397 155.101 193.358 154.942 193.358 154.767V154.528ZM191.224 156.741H195.698V156.991H191.224V156.741ZM191.785 157.491H195.109V158.536H192.091V159.214H191.802V158.297H194.815V157.73H191.785V157.491ZM191.802 159.142H195.27V159.387H191.802V159.142Z" fill="black"/>
<rect x="35.7314" y="49.8242" width="97.8716" height="98.4672" rx="10.8711" fill="#D9D9D9"/>
<rect x="141.544" y="49.8242" width="97.8716" height="98.4672" rx="10.8711" fill="#D9D9D9"/>
<rect x="247.357" y="49.8242" width="97.8716" height="98.4672" rx="10.8711" fill="#D9D9D9"/>
<rect width="103.629" height="2.31368" rx="1.15684" transform="matrix(1 0 0 -1 138.766 181.182)" fill="#D9D9D9"/>
<rect width="30.0779" height="2.31368" rx="1.15684" transform="matrix(1 0 0 -1 177.082 181.182)" fill="#C2C2C2"/>
<rect x="114.746" y="25.9648" width="151.473" height="146.51" rx="10.8711" fill="#999999"/>
</svg>
