<svg width="381" height="18" viewBox="0 0 381 18" fill="none" xmlns="http://www.w3.org/2000/svg">
<rect width="380.489" height="17.7562" fill="#E9E9E9"/>
<path d="M162.62 8.94066H162.941V10.1305H162.62V8.94066ZM162.62 7.09052H162.882V7.2095C162.882 7.52678 162.813 7.81233 162.674 8.06616C162.539 8.31998 162.358 8.53613 162.132 8.7146C161.906 8.89307 161.656 9.02989 161.383 9.12508L161.228 8.87522C161.478 8.79193 161.708 8.67097 161.918 8.51233C162.132 8.35369 162.303 8.16332 162.43 7.94123C162.557 7.71913 162.62 7.47522 162.62 7.2095V7.09052ZM162.674 7.09052H162.935V7.2095C162.935 7.46729 163.001 7.70327 163.132 7.91743C163.263 8.13159 163.435 8.31403 163.649 8.46474C163.863 8.61545 164.094 8.73046 164.339 8.80978L164.191 9.06559C163.917 8.97437 163.665 8.84151 163.435 8.667C163.205 8.4925 163.021 8.2823 162.882 8.03641C162.743 7.79052 162.674 7.51488 162.674 7.2095V7.09052ZM161.335 6.918H164.25V7.1857H161.335V6.918ZM162.62 6.21602H162.941V7.03698H162.62V6.21602ZM164.94 6.18032H165.262V11.4928H164.94V6.18032ZM161.091 10.3327L161.038 10.0531C161.367 10.0531 161.73 10.0511 162.126 10.0472C162.523 10.0392 162.929 10.0234 163.346 9.99958C163.766 9.97182 164.173 9.92621 164.565 9.86275L164.595 10.1067C164.191 10.1781 163.778 10.2296 163.358 10.2613C162.941 10.2931 162.539 10.3129 162.15 10.3208C161.765 10.3288 161.413 10.3327 161.091 10.3327ZM170.633 6.18627H170.948V11.4868H170.633V6.18627ZM169.622 8.36361H170.728V8.63726H169.622V8.36361ZM169.425 6.31715H169.723V11.2013H169.425V6.31715ZM166.695 9.83896H167.022C167.307 9.83896 167.559 9.83499 167.777 9.82706C168 9.81913 168.208 9.80326 168.402 9.77947C168.6 9.75567 168.799 9.71998 168.997 9.67239L169.039 9.94604C168.828 9.99363 168.624 10.0293 168.426 10.0531C168.228 10.0769 168.015 10.0928 167.789 10.1007C167.567 10.1086 167.311 10.1126 167.022 10.1126H166.695V9.83896ZM166.695 6.84661H168.67V7.11431H167.01V9.95199H166.695V6.84661ZM174.438 11.1418C174.216 11.1418 174.022 11.114 173.855 11.0585C173.689 10.999 173.544 10.9276 173.421 10.8443C173.302 10.7571 173.195 10.6679 173.1 10.5766L173.296 10.3327C173.379 10.42 173.472 10.5033 173.576 10.5826C173.679 10.6579 173.8 10.7194 173.938 10.767C174.077 10.8146 174.24 10.8384 174.426 10.8384C174.609 10.8384 174.777 10.7928 174.932 10.7016C175.087 10.6064 175.21 10.4715 175.301 10.297C175.392 10.1186 175.438 9.91431 175.438 9.68428C175.438 9.33924 175.346 9.06757 175.164 8.86927C174.985 8.67097 174.745 8.57182 174.444 8.57182C174.289 8.57182 174.153 8.5976 174.034 8.64916C173.919 8.69675 173.8 8.76219 173.677 8.84547L173.451 8.70865L173.599 6.72763H175.58V7.03698H173.909L173.784 8.48853C173.887 8.42508 173.996 8.3755 174.111 8.33981C174.23 8.30412 174.363 8.28627 174.51 8.28627C174.747 8.28627 174.964 8.33584 175.158 8.43499C175.356 8.53018 175.513 8.68089 175.628 8.88712C175.743 9.08938 175.8 9.35114 175.8 9.67239C175.8 9.9857 175.733 10.2514 175.598 10.4696C175.467 10.6877 175.299 10.8543 175.093 10.9693C174.886 11.0843 174.668 11.1418 174.438 11.1418ZM177.711 11.1418C177.449 11.1418 177.221 11.0605 177.027 10.8979C176.837 10.7313 176.69 10.4815 176.587 10.1483C176.484 9.8112 176.432 9.38882 176.432 8.88117C176.432 8.37749 176.484 7.96106 176.587 7.63188C176.69 7.3027 176.837 7.05681 177.027 6.8942C177.221 6.7316 177.449 6.65029 177.711 6.65029C177.973 6.65029 178.199 6.7316 178.389 6.8942C178.58 7.05681 178.726 7.3027 178.829 7.63188C178.933 7.96106 178.984 8.37749 178.984 8.88117C178.984 9.38882 178.933 9.8112 178.829 10.1483C178.726 10.4815 178.58 10.7313 178.389 10.8979C178.199 11.0605 177.973 11.1418 177.711 11.1418ZM177.711 10.8443C177.897 10.8443 178.06 10.773 178.199 10.6302C178.342 10.4834 178.451 10.2653 178.526 9.97579C178.601 9.6823 178.639 9.31743 178.639 8.88117C178.639 8.45284 178.601 8.09392 178.526 7.8044C178.451 7.51488 178.342 7.29873 178.199 7.15596C178.06 7.01318 177.897 6.94179 177.711 6.94179C177.525 6.94179 177.36 7.01318 177.217 7.15596C177.078 7.29873 176.969 7.51488 176.89 7.8044C176.815 8.09392 176.777 8.45284 176.777 8.88117C176.777 9.31743 176.815 9.6823 176.89 9.97579C176.969 10.2653 177.078 10.4834 177.217 10.6302C177.36 10.773 177.525 10.8443 177.711 10.8443ZM180.496 9.37494C180.306 9.37494 180.139 9.3214 179.996 9.21431C179.854 9.10723 179.745 8.95256 179.669 8.75029C179.594 8.54406 179.556 8.2942 179.556 8.00072C179.556 7.7112 179.594 7.46729 179.669 7.26899C179.745 7.06672 179.854 6.91403 179.996 6.81092C180.139 6.70383 180.306 6.65029 180.496 6.65029C180.69 6.65029 180.859 6.70383 181.002 6.81092C181.145 6.91403 181.254 7.06672 181.329 7.26899C181.404 7.46729 181.442 7.7112 181.442 8.00072C181.442 8.2942 181.404 8.54406 181.329 8.75029C181.254 8.95256 181.145 9.10723 181.002 9.21431C180.859 9.3214 180.69 9.37494 180.496 9.37494ZM180.496 9.13698C180.694 9.13698 180.851 9.03981 180.966 8.84547C181.085 8.64717 181.145 8.36559 181.145 8.00072C181.145 7.63981 181.085 7.36417 180.966 7.1738C180.851 6.98344 180.694 6.88825 180.496 6.88825C180.298 6.88825 180.139 6.98344 180.02 7.1738C179.901 7.36417 179.842 7.63981 179.842 8.00072C179.842 8.36559 179.901 8.64717 180.02 8.84547C180.139 9.03981 180.298 9.13698 180.496 9.13698ZM180.609 11.1418L183.024 6.65029H183.304L180.895 11.1418H180.609ZM183.441 11.1418C183.246 11.1418 183.078 11.0902 182.935 10.9871C182.796 10.88 182.687 10.7254 182.608 10.5231C182.533 10.3169 182.495 10.067 182.495 9.77352C182.495 9.48004 182.533 9.23414 182.608 9.03584C182.687 8.83754 182.796 8.68485 182.935 8.57777C183.078 8.47069 183.246 8.41715 183.441 8.41715C183.631 8.41715 183.796 8.47069 183.935 8.57777C184.077 8.68485 184.186 8.83754 184.262 9.03584C184.341 9.23414 184.381 9.48004 184.381 9.77352C184.381 10.067 184.341 10.3169 184.262 10.5231C184.186 10.7254 184.077 10.88 183.935 10.9871C183.796 11.0902 183.631 11.1418 183.441 11.1418ZM183.441 10.9038C183.635 10.9038 183.792 10.8067 183.911 10.6123C184.034 10.414 184.095 10.1344 184.095 9.77352C184.095 9.40865 184.034 9.13103 183.911 8.94066C183.792 8.75029 183.635 8.65511 183.441 8.65511C183.243 8.65511 183.084 8.75029 182.965 8.94066C182.846 9.13103 182.786 9.40865 182.786 9.77352C182.786 10.1344 182.846 10.414 182.965 10.6123C183.084 10.8067 183.243 10.9038 183.441 10.9038ZM190.045 6.15653H190.36V9.13103H190.045V6.15653ZM190.212 7.51885H191.199V7.79845H190.212V7.51885ZM187.077 9.43443H190.36V10.5231H187.398V11.2608H187.094V10.2673H190.051V9.69023H187.077V9.43443ZM187.094 11.1537H190.575V11.4154H187.094V11.1537ZM186.303 6.71573H189.444V6.97749H186.303V6.71573ZM187.874 7.28089C188.251 7.28089 188.552 7.35822 188.778 7.5129C189.004 7.66757 189.117 7.87975 189.117 8.14944C189.117 8.41913 189.004 8.63329 188.778 8.79193C188.552 8.94661 188.251 9.02394 187.874 9.02394C187.493 9.02394 187.188 8.94661 186.958 8.79193C186.732 8.63329 186.619 8.41913 186.619 8.14944C186.619 7.87975 186.732 7.66757 186.958 7.5129C187.188 7.35822 187.493 7.28089 187.874 7.28089ZM187.874 7.53074C187.584 7.53074 187.352 7.58825 187.178 7.70327C187.007 7.81828 186.922 7.96701 186.922 8.14944C186.922 8.33981 187.007 8.4925 187.178 8.60751C187.352 8.71856 187.584 8.77409 187.874 8.77409C188.155 8.77409 188.381 8.71856 188.552 8.60751C188.726 8.4925 188.814 8.33981 188.814 8.14944C188.814 7.96701 188.726 7.81828 188.552 7.70327C188.381 7.58825 188.155 7.53074 187.874 7.53074ZM187.713 6.12083H188.034V6.8942H187.713V6.12083ZM195.744 6.19222H196.065V10.1007H195.744V6.19222ZM192.734 11.0823H196.244V11.356H192.734V11.0823ZM192.734 9.69618H193.049V11.1537H192.734V9.69618ZM193.245 6.5789C193.503 6.5789 193.733 6.63245 193.935 6.73953C194.138 6.84661 194.298 6.99732 194.417 7.19165C194.536 7.38202 194.596 7.60412 194.596 7.85794C194.596 8.1078 194.536 8.32989 194.417 8.52423C194.298 8.71856 194.138 8.87125 193.935 8.9823C193.733 9.08938 193.503 9.14293 193.245 9.14293C192.988 9.14293 192.757 9.08938 192.555 8.9823C192.353 8.87125 192.192 8.71856 192.073 8.52423C191.954 8.32989 191.895 8.1078 191.895 7.85794C191.895 7.60412 191.954 7.38202 192.073 7.19165C192.192 6.99732 192.353 6.84661 192.555 6.73953C192.757 6.63245 192.988 6.5789 193.245 6.5789ZM193.245 6.85256C193.047 6.85256 192.869 6.89618 192.71 6.98344C192.555 7.07069 192.432 7.18967 192.341 7.34038C192.254 7.49109 192.21 7.66361 192.21 7.85794C192.21 8.04831 192.254 8.21885 192.341 8.36955C192.432 8.52026 192.555 8.63924 192.71 8.72649C192.869 8.81375 193.047 8.85737 193.245 8.85737C193.444 8.85737 193.622 8.81375 193.781 8.72649C193.939 8.63924 194.062 8.52026 194.15 8.36955C194.241 8.21885 194.286 8.04831 194.286 7.85794C194.286 7.66361 194.241 7.49109 194.15 7.34038C194.062 7.18967 193.939 7.07069 193.781 6.98344C193.622 6.89618 193.444 6.85256 193.245 6.85256ZM201.151 7.67352V7.92338L197.772 8.08995L197.718 7.8044L201.151 7.67352ZM197.861 6.53726H201.169V6.81092H197.861V6.53726ZM197.225 9.07154H202.02V9.33924H197.225V9.07154ZM199.473 9.25596H199.789V11.4868H199.473V9.25596ZM201.056 6.53726H201.359V7.02508C201.359 7.21545 201.355 7.41771 201.347 7.63188C201.343 7.84604 201.326 8.07805 201.294 8.32791C201.266 8.57777 201.215 8.85737 201.139 9.16672L200.824 9.12508C200.939 8.68485 201.006 8.29817 201.026 7.96502C201.046 7.62791 201.056 7.3146 201.056 7.02508V6.53726ZM203.161 6.45398H207.016V6.72168H203.161V6.45398ZM203.167 8.1078H207.004V8.3755H203.167V8.1078ZM204.036 6.60865H204.357V8.20298H204.036V6.60865ZM205.827 6.60865H206.136V8.20298H205.827V6.60865ZM202.697 9.11318H207.486V9.38683H202.697V9.11318ZM204.94 8.28627H205.255V9.29165H204.94V8.28627ZM203.34 11.0823H206.963V11.356H203.34V11.0823ZM203.34 9.92224H203.661V11.1596H203.34V9.92224Z" fill="black"/>
</svg>
