<svg preserveAspectRatio="none" width="100%" height="100%" overflow="visible" style="display: block;" viewBox="0 0 305.876 305.876" fill="none" xmlns="http://www.w3.org/2000/svg">
<g id="&#235;&#176;&#152;&#236;&#167;&#157;">
<path id="Vector" d="M153.146 105.63V35.8462M153.146 270.028V200.244M200.239 153.151H270.023M35.8413 153.151H105.625M186.111 186.544L234.917 236.634M70.9471 69.6677L119.753 119.33M186.539 119.758L236.629 70.952M69.6628 234.922L119.325 186.116" stroke="var(--stroke-0, white)" stroke-width="2.57038" stroke-miterlimit="10"/>
<path id="Vector_2" d="M171.206 109.3L197.862 44.8078M108.41 261.232L135.065 196.74M196.576 171.206L261.068 197.862M44.6443 108.41L109.136 135.065M170.764 196.671L196.735 261.605M108.977 44.6664L135.112 109.205M196.671 135.112L261.605 109.14M44.6664 196.899L109.205 170.764" stroke="var(--stroke-0, white)" stroke-width="2.57038" stroke-miterlimit="10"/>
</g>
</svg>
