<svg width="421" height="347" viewBox="0 0 421 347" fill="none" xmlns="http://www.w3.org/2000/svg">
<rect width="257.46" height="242.04" transform="matrix(-0.868027 0.496517 0.496517 0.868027 262.419 49.2402)" fill="#E4E7E0"/>
<path d="M219.21 232.289L262.184 49.5574L39.9134 176.698L219.21 232.289Z" fill="#DADFD5"/>
<path d="M201.238 200.861L158.264 383.592L380.534 256.452L201.238 200.861Z" fill="#D6D9D1"/>
<rect width="251.426" height="236.676" transform="matrix(-0.868027 0.496517 0.496517 0.868027 261.133 53.0684)" stroke="#BFA73C" stroke-width="1.0057"/>
<path d="M227.244 196.706C216.152 197.225 223.951 195.188 213.478 191.59C205.784 188.419 193.628 196.204 190.955 202.896C178.875 208.743 157.977 239.678 204.061 242.227C239.902 244.209 242.149 220.008 242.622 218.537C245.413 209.86 237.317 196.235 227.244 196.706Z" fill="#630003"/>
<path d="M226.501 198.112C215.966 198.604 223.373 196.67 213.425 193.252C206.117 190.239 194.57 197.635 192.03 203.991C180.556 209.546 160.705 238.931 204.48 241.352C238.526 243.235 240.66 220.246 241.11 218.849C243.761 210.606 236.071 197.664 226.501 198.112Z" stroke="#BFA73C" stroke-width="0.335235"/>
</svg>
